<svg height="512" viewBox="0 0 56 60" width="512" xmlns="http://www.w3.org/2000/svg"><g id="Page-1" fill="none" fill-rule="evenodd"><g id="036---4K"><path id="Shape" d="m49 51h2c2.209139 0 4-1.790861 4-4v-42c0-2.209139-1.790861-4-4-4h-46c-2.209139 0-4 1.790861-4 4v42c0 2.209139 1.790861 4 4 4h2" fill="#02a9f4" fill-rule="nonzero"/><path id="Shape" d="m51 1h-3c2.209139 0 4 1.790861 4 4v42c0 2.209139-1.790861 4-4 4h3c2.209139 0 4-1.790861 4-4v-42c0-2.209139-1.790861-4-4-4z" fill="#0377bc" fill-rule="nonzero"/><path id="Shape" d="m5 37 16-17 14.835 17.143" fill="#60a917" fill-rule="nonzero"/><path id="Shape" d="m32.823 37.129 3.012.014-14.835-17.143-1.563 1.661z" fill="#549414" fill-rule="nonzero"/><path id="Shape" d="m28 37 11-14 12 14" stroke="#000" stroke-linecap="round" stroke-linejoin="round" stroke-width="2"/><g fill-rule="nonzero"><path id="Shape" d="m28 37 11-14 12 14" fill="#008a00"/><path id="Shape" d="m39 23-1.435 1.826 10.435 12.174h3z" fill="#007900"/><circle id="Oval" cx="46" cy="10" fill="#ffdc00" r="4"/><path id="Shape" d="m46 6c-.5146843.00216946-1.0240724.10404706-1.5.3 1.5110147.60851068 2.5007405 2.07405844 2.5007405 3.703 0 1.6289416-.9897258 3.0944893-2.5007405 3.703 1.496414.6077595 3.211506.2559465 4.3478056-.8918556s1.4708211-2.86635044.8480212-4.35656747-2.0807039-2.45966481-3.6958268-2.45757693z" fill="#fec108"/><path id="Shape" d="m19 12c0 1.6568542-1.3431458 3-3 3h-8c-1.65685425 0-3-1.3431458-3-3s1.34314575-3 3-3c.45052504-.00030464.89516717.10230508 1.3.3-.19769492-.40483283-.30030464-.84947496-.3-1.3.00000005-1.65685421 1.3431458-2.99999991 3-2.99999991s3 1.3431457 3 2.99999991c.0003046.45052504-.1023051.89516717-.3 1.3.4048328-.19769492.849475-.30030464 1.3-.3 1.6568542 0 3 1.3431458 3 3z" fill="#f5f5f5"/><path id="Shape" d="m38 17.6c-.0472366 1.3726964-1.1983025 2.4472036-2.571 2.4h-6.858c-.897945.063534-1.7562439-.3795024-2.2245683-1.1482768-.4683245-.7687744-.4683245-1.734672 0-2.5034464.4683244-.7687744 1.3266233-1.2118108 2.2245683-1.1482768.3845456-.0005861.7647506.0812517 1.115.24-.1686732-.3207202-.2568711-.6776299-.257-1.04.0924119-1.3518705 1.2159746-2.4012502 2.571-2.4012502s2.4785881 1.0493797 2.571 2.4012502c-.0001289.3623701-.0883268.7192798-.257 1.04.3502494-.1587483.7304544-.2405861 1.115-.24 1.3726975-.0472036 2.5237634 1.0273036 2.571 2.4z" fill="#f5f5f5"/><rect id="Rectangle-path" fill="#ffdc00" height="18" rx="1" width="28" x="14" y="41"/><path id="Shape" d="m41 41h-3c.5522847 0 1 .4477153 1 1v16c0 .5522847-.4477153 1-1 1h3c.5522847 0 1-.4477153 1-1v-16c0-.5522847-.4477153-1-1-1z" fill="#fec108"/><path id="Shape" d="m15 60h26c1.1045695 0 2-.8954305 2-2v-6h8c2.7600532-.0033061 4.9966939-2.2399468 5-5v-42c-.0033061-2.76005315-2.2399468-4.99669388-5-5h-46c-2.76005315.00330612-4.99669388 2.23994685-5 5v42c.00330612 2.7600532 2.23994685 4.9966939 5 5h8v6c0 .530433.2107137 1.0391408.5857864 1.4142136.3750728.3750727.8837806.5857864 1.4142136.5857864zm0-2v-16h26v16zm-10-8c-1.65685425 0-3-1.3431458-3-3v-42c0-1.65685425 1.34314575-3 3-3h46c1.6568542 0 3 1.34314575 3 3v42c0 1.6568542-1.3431458 3-3 3h-8v-8c0-1.1045695-.8954305-2-2-2h-26c-1.1045695 0-2 .8954305-2 2v8z" fill="#000"/><path id="Shape" d="m30.374 32.36-3.16 4.022c-.2280071.2802095-.2871582.6616098-.1547354.9977182.1324228.3361083.4358297.5746649.7936927.6240484.3578629.0493835.7145396-.0980845.9330427-.3857666l10.247-13.042 11.208 13.075c.36484.3948857.9766102.4306334 1.384959.0809275.4083488-.3497058.4671163-.9596952.133041-1.3809275l-12-14c-.1992917-.2209293-.4824684-.3476328-.78-.349-.2993271.0063943-.5800419.1465682-.765.382l-6.582 8.377-9.876-11.415c-.185007-.2141358-.4520795-.3398597-.735-.346-.2839203-.010218-.5580474.1045499-.75.314l-16 17c-.37886734.4026156-.35961558 1.0361327.043 1.415s1.03613266.3596156 1.415-.043l15.24-16.194z" fill="#000"/><path id="Shape" d="m46 15c2.7614237 0 5-2.2385763 5-5 0-2.76142375-2.2385763-5-5-5s-5 2.23857625-5 5c.0033061 2.7600532 2.2399468 4.9966939 5 5zm0-8c1.6568542 0 3 1.34314575 3 3 0 1.6568542-1.3431458 3-3 3s-3-1.3431458-3-3c0-1.65685425 1.3431458-3 3-3z" fill="#000"/><path id="Shape" d="m8 16h8c2.209139 0 4-1.790861 4-4s-1.790861-4-4-4c0-2.209139-1.790861-4-4-4s-4 1.790861-4 4c-2.209139 0-4 1.790861-4 4s1.790861 4 4 4zm0-6c.29855814-.00040369.59318938.0680356.861.2.38395198.1888298.84549873.1124611 1.148164-.1899782.3026654-.30243929.3793789-.76392885.190836-1.1480218-.1317408-.26824664-.20016368-.56314906-.2-.862 0-1.10456948.8954305-1.99999994 2-1.99999994s2 .89543046 2 1.99999994c.0001637.29885094-.0682592.59375336-.2.862-.1885429.38409295-.1118294.84558251.190836 1.1480218.3026653.3024393.764212.378808 1.148164.1899782.2678106-.1319644.5624419-.20040369.861-.2 1.1045695 0 2 .8954305 2 2s-.8954305 2-2 2h-8c-1.1045695 0-2-.8954305-2-2s.8954305-2 2-2z" fill="#000"/><path id="Shape" d="m28.571 21h6.858c1.9236034.0436348 3.5202663-1.4765707 3.571-3.4-.0449792-1.8723969-1.5622407-3.3741986-3.435-3.4-.1934073-1.8233264-1.7314446-3.2068466-3.565-3.2068466s-3.3715927 1.3835202-3.565 3.2068466c-1.8727593.0258014-3.3900208 1.5276031-3.435 3.4.0507337 1.9234293 1.6473966 3.4436348 3.571 3.4zm0-4.8c.2414396-.0012517.4802729.0499268.7.15.3885158.1763603.8461356.0867883 1.1394881-.2230371s.3578143-.7716518.1605119-1.1499629c-.0939351-.1778215-.1430237-.3758924-.143-.577.0903376-.7993765.7665351-1.4034613 1.571-1.4034613s1.4806624.6040848 1.571 1.4034613c.0000237.2011076-.0490649.3991785-.143.577-.1973024.3783111-.1328406.8401375.1605119 1.1499629s.7509723.3993974 1.1394881.2230371c.2197271-.1000732.4585604-.1512517.7-.15.8188321-.0416553 1.5193995.581863 1.573 1.4-.0536018.8173191-.7529282 1.4405253-1.571 1.4h-6.858c-.8180718.0405253-1.5173982-.5826809-1.571-1.4.0536018-.8173191.7529282-1.4405253 1.571-1.4z" fill="#000"/><path id="Shape" d="m36.769 44.36c-.1698334-.2042121-.413931-.3324707-.6784483-.3564836-.2645172-.0240129-.5277208.0581928-.7315517.2284836l-4.359 3.633v-2.865c0-.5522847-.4477153-1-1-1s-1 .4477153-1 1v10c0 .5522847.4477153 1 1 1s1-.4477153 1-1v-2.865l4.359 3.633c.27438.2290073.6500914.2942387.9856075.1711223s.5798639-.4158763.641-.768-.0702275-.7101151-.3446075-.9391223l-5.079-4.232 5.079-4.232c.4240023-.3535422.4812979-.9837941.128-1.408z" fill="#000"/><path id="Shape" d="m26 50h-1v-2c0-.5522847-.4477153-1-1-1s-1 .4477153-1 1v2h-2v-5c0-.5522847-.4477153-1-1-1s-1 .4477153-1 1v6c0 .5522847.4477153 1 1 1h3v3c0 .5522847.4477153 1 1 1s1-.4477153 1-1v-3h1c.5522847 0 1-.4477153 1-1s-.4477153-1-1-1z" fill="#000"/></g></g></g></svg>