<svg id="Layer_1" enable-background="new 0 0 512 512" height="512" viewBox="0 0 512 512" width="512" xmlns="http://www.w3.org/2000/svg"><g><path d="m224.45 447s41.716-187.249 126.669-187.249 126.669 187.249 126.669 187.249z" fill="#09a76d"/><path d="m351.119 259.751c-5.16 0-10.159.696-15 1.994 74.865 20.066 111.669 185.255 111.669 185.255h30s-41.716-187.249-126.669-187.249z" fill="#02905d"/><circle cx="392.814" cy="79.5" fill="#ffd15b" r="37"/><path d="m392.814 42.5c-5.342 0-10.414 1.141-15 3.178 12.958 5.756 22 18.729 22 33.822s-9.042 28.066-22 33.822c4.586 2.037 9.658 3.178 15 3.178 20.435 0 37-16.565 37-37s-16.566-37-37-37z" fill="#ffc344"/><path d="m36.271 447s53.022-238 161-238 161 238 161 238z" fill="#57be92"/><path d="m197.271 209c-5.124 0-10.123.539-15 1.56 97.89 20.495 146 236.44 146 236.44h30s-53.022-238-161-238z" fill="#22b37f"/><path d="m73.766 333.68c6.269 5.766 12.697 11.267 20.452 14.64 17.232 7.493 37.534 2.78 54.14-6.014s30.924-21.36 47.141-30.851c16.218-9.491 35.72-15.883 53.765-10.64 8.557 2.487 16.159 7.407 24.078 11.493 12.608 6.506 27.909 10.723 41.28 7.779-26.712-56.749-65.757-111.087-117.351-111.087-55.708 0-96.787 63.348-123.505 124.68z" fill="#97da7b"/><g><path d="m197.271 209c-5.128 0-10.13.541-15.01 1.563 43.216 9.043 76.73 56.173 100.687 106.009 10.328 3.865 21.552 5.743 31.674 3.515-26.712-56.749-65.757-111.087-117.351-111.087z" fill="#80d261"/></g><g><path d="m491.349 463.986c0 2.918-.29 5.766-.85 8.514h-185.65c0-18.856 15.3-34.135 34.16-34.135 3.22 0 6.33.44 9.28 1.269-.3-2.079-.46-4.207-.46-6.375 0-24.163 19.6-43.758 43.79-43.758 20.93 0 38.43 14.679 42.75 34.295 4.47-1.589 9.28-2.458 14.3-2.458 23.57-.001 42.68 19.095 42.68 42.648z" fill="#97da7b"/><path d="m448.669 421.337c-5.02 0-9.83.869-14.3 2.458-4.32-19.616-21.82-34.295-42.75-34.295-5.273 0-10.328.932-15.009 2.639 10.812 3.939 19.635 12.009 24.546 22.305 2.334 4.893 7.601 7.699 12.996 7.13 2.418-.255 4.898-.308 7.423-.14 21.946 1.457 39.371 19.781 39.767 41.756.058 3.196-.232 6.313-.843 9.31h30c.56-2.748.85-5.596.85-8.514 0-23.553-19.11-42.649-42.68-42.649z" fill="#80d261"/><path d="m329.84 465.75c0 2.3-.19 4.56-.54 6.75h-210.24c0-19.38 15.71-35.1 35.1-35.1 6.82 0 13.18 1.96 18.57 5.33 1.12-12.6 6.93-23.83 15.69-31.96-10.83-3.23-18.72-13.26-18.72-25.13 0-14.5 11.75-26.25 26.24-26.25 14.5 0 26.25 11.75 26.25 26.25 0 4.31-1.06 8.37-2.91 11.96.96-.06 1.93-.09 2.91-.09 20.94 0 38.84 12.97 46.15 31.31 5.86-3.13 12.55-4.91 19.66-4.91 23.11 0 41.84 18.73 41.84 41.84z" fill="#97da7b"/><g fill="#80d261"><path d="m192.19 385.64c0 3.316-.628 6.484-1.759 9.404-.465 1.201.442 2.467 1.73 2.466h.029c19.444 0 36.266 11.183 44.423 27.464 1.019 2.034 3.441 2.912 5.545 2.048 4.885-2.004 10.232-3.112 15.841-3.112 2.915 0 5.759.3 8.505.867-8.194-16.172-24.951-27.267-44.315-27.267-.98 0-1.95.03-2.91.09 2.069-4.015 3.15-8.618 2.865-13.501-.815-13.96-12.784-24.997-26.765-24.703-5.363.113-10.328 1.84-14.436 4.708 6.798 4.744 11.247 12.617 11.247 21.536z"/><path d="m288 423.91c-5.289 0-10.343.988-14.998 2.781 15.696 6.031 26.839 21.238 26.839 39.059 0 2.3-.19 4.56-.54 6.75h30c.35-2.19.54-4.45.54-6.75-.001-23.11-18.731-41.84-41.841-41.84z"/></g><path d="m20.651 463.986c0 2.918.29 5.766.85 8.514h185.65c0-18.856-15.3-34.135-34.16-34.135-3.22 0-6.33.44-9.28 1.269.3-2.079.46-4.207.46-6.375 0-24.163-19.6-43.758-43.79-43.758-20.93 0-38.43 14.679-42.75 34.295-4.47-1.589-9.28-2.458-14.3-2.458-23.57-.001-42.68 19.095-42.68 42.648z" fill="#97da7b"/><path d="m172.991 438.365c-3.22 0-6.33.44-9.28 1.269.3-2.079.46-4.207.46-6.375 0-24.163-19.6-43.758-43.79-43.758-5.269 0-10.319.932-14.997 2.637 16.797 6.121 28.787 22.224 28.787 41.121v.131c-.009 3.061 2.589 5.399 5.639 5.12 1.047-.096 2.108-.145 3.181-.145 18.86 0 34.16 15.279 34.16 34.135h30c0-18.856-15.3-34.135-34.16-34.135z" fill="#80d261"/></g><path d="m488.5 504.5h-465c-8.837 0-16-7.163-16-16v-12c0-2.209 1.791-4 4-4h489c2.209 0 4 1.791 4 4v12c0 8.837-7.163 16-16 16z" fill="#ae6c6c"/><path d="m474.5 472.5v16c0 8.837-7.163 16-16 16h30c8.837 0 16-7.163 16-16v-12c0-2.209-1.791-4-4-4z" fill="#9b5e5e"/><path d="m419.429 138.162h-252c-1.839 0-3.253-1.647-2.961-3.463 2.12-13.195 13.559-23.273 27.357-23.273 1.555 0 3.09.14 4.576.389 2.891-17.495 18.073-30.843 36.385-30.843 4.037 0 7.915.658 11.544 1.854 3.04-21.881 21.811-38.738 44.529-38.738 24.842 0 44.968 20.136 44.968 44.978 0 1.864-.12 3.698-.339 5.503 5.204-3.479 11.464-5.503 18.203-5.503 15.381 0 28.291 10.577 31.859 24.852 3.499-1.595 7.387-2.492 11.484-2.492 13.798 0 25.237 10.078 27.357 23.273.291 1.816-1.123 3.463-2.962 3.463z" fill="#eaf9fa"/><path d="m422.391 134.699c-2.12-13.195-13.559-23.273-27.357-23.273-4.097 0-7.985.897-11.484 2.492-3.569-14.275-16.478-24.852-31.859-24.852-6.739 0-12.999 2.024-18.203 5.503.219-1.804.339-3.639.339-5.503 0-24.842-20.126-44.978-44.968-44.978-8.834 0-17.065 2.558-24.012 6.959 18.285 5.708 31.551 22.774 31.551 42.942v.085c-.005 2.266 2.301 3.738 4.367 2.805 4.115-1.858 8.684-2.89 13.497-2.89 14.289 0 26.444 9.127 30.96 21.867.548 1.547 2.237 2.365 3.797 1.855 2.703-.883 5.589-1.363 8.587-1.363 13.284 0 24.378 9.342 27.078 21.813h34.747c1.837.001 3.251-1.646 2.96-3.462z" fill="#dcf5f8"/><g><path d="m392.813 25c4.143 0 7.5-3.358 7.5-7.5v-10c0-4.142-3.357-7.5-7.5-7.5s-7.5 3.358-7.5 7.5v10c0 4.142 3.358 7.5 7.5 7.5z"/><path d="m436.654 43.159c1.919 0 3.839-.732 5.303-2.196l7.071-7.071c2.93-2.929 2.93-7.678.001-10.607-2.929-2.928-7.678-2.929-10.606 0l-7.071 7.071c-2.93 2.929-2.93 7.678-.001 10.607 1.464 1.464 3.383 2.196 5.303 2.196z"/><path d="m447.313 79.5c0 4.142 3.357 7.5 7.5 7.5h10c4.143 0 7.5-3.358 7.5-7.5s-3.357-7.5-7.5-7.5h-10c-4.142 0-7.5 3.358-7.5 7.5z"/><path d="m441.957 118.037c-2.928-2.929-7.677-2.928-10.606 0-2.929 2.929-2.929 7.678.001 10.607l7.071 7.071c1.464 1.464 3.384 2.196 5.303 2.196s3.839-.732 5.304-2.197c2.929-2.929 2.929-7.678-.001-10.607z"/><path d="m343.67 40.963c1.464 1.464 3.384 2.196 5.303 2.196s3.839-.732 5.304-2.197c2.929-2.929 2.929-7.678-.001-10.607l-7.071-7.071c-2.928-2.929-7.677-2.928-10.606 0-2.929 2.929-2.929 7.678.001 10.607z"/><path d="m500.5 465h-1.676c.007-.337.025-.673.025-1.01 0-15.927-7.477-30.133-19.097-39.327-15.112-53.805-56.623-172.413-128.632-172.413-18.276 0-35.849 7.66-52.348 22.793-30.623-48.809-64.73-73.543-101.502-73.543-27.183 0-53.149 13.681-77.177 40.664-2.755 3.093-2.48 7.834.613 10.589 3.094 2.754 7.834 2.48 10.589-.613 21.059-23.649 43.256-35.64 65.975-35.64 33.641 0 65.603 25.846 94.998 76.82 3.783 6.561 7.384 13.297 10.804 20.122-8.095-.465-17.262-3.14-26.292-7.799-1.928-.995-3.822-2.034-5.828-3.134-6.106-3.349-12.422-6.813-19.596-8.897-22.214-6.455-44.696 2.62-59.646 11.369-7.586 4.44-14.756 9.516-21.689 14.425-8.474 5.999-16.477 11.666-25.173 16.271-17.448 9.24-34.813 11.342-47.64 5.764-4.983-2.167-9.414-5.395-14.398-9.731 8.119-18.108 17.477-36.17 28.113-52.541 2.257-3.474 1.271-8.119-2.203-10.375-3.474-2.257-8.118-1.271-10.375 2.203-32.725 50.373-53.684 115.663-63.649 151.842-13.009 9.07-21.544 24.127-21.544 41.147 0 .338.019.676.025 1.014h-1.677c-6.341 0-11.5 5.159-11.5 11.5v12c0 12.958 10.542 23.5 23.5 23.5h358.692c4.143 0 7.5-3.358 7.5-7.5s-3.357-7.5-7.5-7.5h-358.692c-4.687 0-8.5-3.813-8.5-8.5v-8.5h482v8.5c0 4.687-3.813 8.5-8.5 8.5h-71.331c-4.143 0-7.5 3.358-7.5 7.5s3.357 7.5 7.5 7.5h71.331c12.958 0 23.5-10.542 23.5-23.5v-12c0-6.341-5.159-11.5-11.5-11.5zm-39.098-49.52c-4.068-1.067-8.334-1.64-12.732-1.64-3.121 0-6.213.286-9.25.854-7.556-19.332-26.56-32.694-47.8-32.694-15.378 0-29.193 6.802-38.602 17.549-10.175-32.819-25.489-74.429-46.374-111.289 14.352-13.933 29.292-21.011 44.476-21.011 57.449.001 95.18 99.267 110.282 148.231zm-384.789-69.387c4.303 3.447 9.124 6.717 14.614 9.105 7.258 3.156 14.645 4.389 21.763 4.389 15.752 0 30.174-6.043 38.878-10.652 9.553-5.059 18.332-11.274 26.821-17.285 6.98-4.942 13.573-9.61 20.598-13.721 12.411-7.263 30.792-14.878 47.884-9.911 5.592 1.625 10.924 4.549 16.57 7.645 1.998 1.096 4.065 2.229 6.161 3.312 8.319 4.293 24.012 10.819 40.292 9.359 14.588 31.89 25.376 64.401 32.588 89.301-1.352 4.209-2.186 8.648-2.397 13.249-5.194-.173-10.385.658-15.256 2.375-9.317-10.644-22.788-16.847-37.129-16.847-5.452 0-10.879.913-16.015 2.673-8.881-15.817-24.625-26.4-42.637-28.633.227-1.581.341-3.186.341-4.81 0-18.61-15.14-33.75-33.75-33.75-18.604 0-33.74 15.14-33.74 33.75 0 11.009 5.477 21.181 14.118 27.411-2.25 3.009-4.163 6.228-5.764 9.601-4.903-23.191-25.53-40.654-50.172-40.654-21.24 0-40.244 13.361-47.8 32.69-3.037-.567-6.129-.854-9.25-.854-3.715 0-7.333.418-10.82 1.187 5.628-19.186 13.647-43.674 24.102-68.93zm-48.447 118.907c-.009-.337-.014-.675-.014-1.014 0-19.381 15.782-35.149 35.18-35.149 4.041 0 8.007.682 11.789 2.025 2.028.72 4.267.536 6.148-.508 1.882-1.043 3.225-2.845 3.688-4.946 3.624-16.461 18.522-28.408 35.424-28.408 20.01 0 36.29 16.266 36.29 36.258 0 1.757-.129 3.542-.383 5.305-.362 2.512.57 5.037 2.479 6.709 1.908 1.673 4.532 2.268 6.976 1.581 2.333-.656 4.772-.989 7.249-.989 12.095 0 22.334 8.088 25.584 19.135h-170.41zm185.795 0c-2.957-16.17-15.283-29.102-31.135-32.953 2.278-5.955 5.896-11.322 10.698-15.782 1.972-1.832 2.811-4.58 2.199-7.2s-2.581-4.713-5.16-5.482c-7.868-2.347-13.363-9.725-13.363-17.943 0-10.339 8.407-18.75 18.74-18.75 10.339 0 18.75 8.411 18.75 18.75 0 2.982-.699 5.85-2.077 8.524-1.236 2.399-1.088 5.278.388 7.538 1.477 2.26 4.045 3.551 6.747 3.383.803-.05 1.625-.076 2.442-.076 17.366 0 32.746 10.436 39.183 26.587.79 1.982 2.387 3.534 4.392 4.267s4.227.577 6.108-.428c5.001-2.671 10.427-4.025 16.127-4.025 11.464 0 22.135 5.694 28.538 15.224 3.656 5.459 5.652 11.794 5.794 18.366zm123.365 0c-.096-6.426-1.423-12.701-3.904-18.539 1.829-.39 3.702-.602 5.587-.602 2.476 0 4.915.333 7.249.99 2.443.688 5.068.092 6.978-1.582 1.908-1.674 2.84-4.2 2.477-6.713-.254-1.752-.383-3.534-.383-5.295 0-19.994 16.279-36.26 36.29-36.26 16.901 0 31.8 11.949 35.426 28.413.463 2.102 1.806 3.903 3.688 4.947 1.882 1.043 4.12 1.227 6.149.507 3.78-1.345 7.745-2.026 11.786-2.026 19.398 0 35.18 15.769 35.18 35.15 0 .337-.005.673-.015 1.01z"/><path d="m167.429 145.662h154.95c4.143 0 7.5-3.358 7.5-7.5s-3.357-7.5-7.5-7.5h-148.929c3.212-7.032 10.269-11.736 18.375-11.736 1.083 0 2.206.096 3.335.286 1.962.326 3.98-.137 5.601-1.295s2.714-2.914 3.04-4.879c2.352-14.234 14.542-24.565 28.985-24.565 3.128 0 6.222.497 9.196 1.478 2.112.695 4.425.418 6.314-.757 1.888-1.176 3.157-3.13 3.463-5.333 2.556-18.397 18.506-32.27 37.101-32.27 20.66 0 37.468 16.813 37.468 37.478 0 1.503-.096 3.049-.284 4.596-.354 2.91 1.02 5.76 3.517 7.295 2.496 1.535 5.659 1.476 8.097-.154 4.147-2.772 9-4.237 14.035-4.237 11.652 0 21.761 7.883 24.583 19.171.541 2.161 2.014 3.97 4.021 4.937s4.34.992 6.367.068c2.644-1.205 5.461-1.816 8.372-1.816 2.859 0 5.582.596 8.058 1.662.192.097.39.177.589.257 4.274 2.005 7.739 5.463 9.728 9.818h-56.006c-4.143 0-7.5 3.358-7.5 7.5s3.357 7.5 7.5 7.5h62.026c3.081 0 5.995-1.346 7.994-3.692 1.996-2.343 2.86-5.427 2.373-8.461-1.192-7.415-4.606-13.947-9.502-18.976 10.604-8.276 17.015-21.035 17.015-35.033 0-24.538-19.963-44.5-44.5-44.5s-44.5 19.962-44.5 44.5c0 .74.039 1.478.075 2.216-2.517.204-4.996.626-7.406 1.288-3.016-26.091-25.239-46.415-52.12-46.415-23.291 0-43.62 15.548-50.215 37.271-1.938-.258-3.894-.388-5.858-.388-19.498 0-36.278 12.469-42.162 30.474-16.856.558-30.87 12.818-33.561 29.562-.488 3.035.377 6.12 2.373 8.462 1.998 2.342 4.911 3.688 7.992 3.688zm225.381-95.662c16.267 0 29.5 13.233 29.5 29.5 0 11.217-6.214 21.226-16.035 26.243-3.537-1.178-7.318-1.817-11.241-1.817-2.335 0-4.635.226-6.887.674-4.858-10.271-13.827-17.947-24.582-21.246-.166-1.276-.255-2.563-.255-3.854 0-16.267 13.233-29.5 29.5-29.5z"/></g></g></svg>