<svg id="Capa_1" enable-background="new 0 0 502 502" height="512" viewBox="0 0 502 502" width="512" xmlns="http://www.w3.org/2000/svg" xmlns:xlink="http://www.w3.org/1999/xlink"><linearGradient id="SVGID_1_" gradientUnits="userSpaceOnUse" x1="251" x2="251" y1="600.732" y2="10.189"><stop offset="0" stop-color="#f4d952"/><stop offset="1" stop-color="#f9edaf"/></linearGradient><linearGradient id="SVGID_2_" gradientUnits="userSpaceOnUse" x1="251" x2="251" y1="467.153" y2="37.078"><stop offset="0" stop-color="#ec6f80"/><stop offset="1" stop-color="#eca0aa"/></linearGradient><g><path d="m146.617 65.729-31.215-5.452c-32.519-5.68-60.821 22.628-55.134 55.145l5.453 31.184c3.182 18.193-4.437 36.586-19.551 47.2l-25.907 18.194c-27.014 18.973-27.018 59.002-.008 77.98l25.928 18.217c15.106 10.614 22.722 28.999 19.545 47.186l-5.452 31.216c-5.68 32.519 22.628 60.821 55.145 55.134l31.184-5.453c18.193-3.182 36.586 4.437 47.2 19.551l18.195 25.906c18.973 27.014 59.002 27.018 77.98.008l18.217-25.928c10.614-15.106 28.999-22.722 47.186-19.545l31.216 5.452c32.519 5.68 60.821-22.628 55.134-55.145l-5.453-31.184c-3.181-18.193 4.437-36.586 19.551-47.2l25.906-18.195c27.014-18.973 27.018-59.002.008-77.98l-25.928-18.217c-15.106-10.614-22.722-28.999-19.545-47.186l5.452-31.215c5.68-32.519-22.628-60.821-55.145-55.134l-31.184 5.453c-18.193 3.181-36.586-4.437-47.2-19.551l-18.195-25.907c-18.973-27.014-59.002-27.018-77.98-.008l-18.217 25.928c-10.614 15.107-28.999 22.723-47.186 19.546z" fill="url(#SVGID_1_)"/><g fill="#efc534"><path d="m40.686 299.213 15.659-24.667c9.123-14.371 9.123-32.72 0-47.092l-15.659-24.667c-.765-1.206-1.442-2.435-2.075-3.673l-18.348 12.886c-2.195 1.541-4.192 3.234-6.03 5.031.366.616.741 1.228 1.126 1.834l15.659 24.668c2.88 4.536 2.88 10.398 0 14.935l-15.659 24.667c-.383.604-.755 1.212-1.12 1.825 1.835 1.793 3.828 3.482 6.017 5.02l18.359 12.9c.632-1.237 1.307-2.464 2.071-3.667z"/><path d="m410.23 370.895-4.926 1.099c-16.62 3.709-29.6 16.689-33.309 33.309l-6.358 28.488c-.312 1.396-.703 2.746-1.132 4.073l22.093 3.859c2.635.46 5.238.675 7.801.705.178-.699.36-1.396.517-2.102l6.358-28.488c1.176-5.271 5.293-9.388 10.564-10.564l4.926-1.099c8.058-1.798 13.148-9.77 11.388-17.837-1.771-8.121-9.809-13.253-17.922-11.443z"/><path d="m136.363 433.792-6.358-28.488c-3.709-16.62-16.689-29.6-33.309-33.309l-28.488-6.358c-1.396-.312-2.747-.703-4.073-1.132l-3.859 22.093c-.461 2.64-.676 5.247-.705 7.816.697.177 1.398.346 2.102.503l28.488 6.358c5.247 1.171 9.393 5.317 10.564 10.564l6.357 28.488c.158.709.341 1.41.52 2.113 2.569-.029 5.178-.245 7.819-.707l22.076-3.86c-.43-1.329-.822-2.682-1.134-4.081z"/><path d="m299.213 461.314-24.667-15.659c-14.372-9.123-32.72-9.123-47.092 0l-24.667 15.659c-1.206.765-2.434 1.442-3.673 2.075l12.886 18.348c1.54 2.193 3.232 4.189 5.027 6.027.616-.367 1.231-.737 1.838-1.122l24.668-15.659c2.236-1.42 4.818-2.17 7.467-2.17s5.231.751 7.467 2.17l24.668 15.659c.604.383 1.215.751 1.828 1.116 1.791-1.834 3.479-3.825 5.017-6.014l12.9-18.359c-1.237-.632-2.464-1.307-3.667-2.071z"/></g><path d="m227.454 56.345-24.667-15.659c-25.697-16.313-59.795-2.185-66.424 27.522l-6.358 28.488c-3.709 16.62-16.689 29.6-33.309 33.309l-28.488 6.358c-29.707 6.63-43.834 40.727-27.522 66.424l15.659 24.667c9.123 14.372 9.123 32.72 0 47.092l-15.659 24.667c-16.313 25.697-2.185 59.795 27.522 66.424l28.488 6.358c16.62 3.709 29.6 16.689 33.309 33.309l6.358 28.488c6.63 29.707 40.727 43.834 66.424 27.521l24.667-15.659c14.372-9.123 32.72-9.123 47.092 0l24.667 15.659c25.697 16.313 59.795 2.185 66.424-27.521l6.358-28.488c3.709-16.62 16.689-29.6 33.309-33.309l28.488-6.358c29.707-6.63 43.834-40.727 27.522-66.424l-15.659-24.667c-9.123-14.372-9.123-32.72 0-47.092l15.659-24.667c16.313-25.697 2.185-59.795-27.522-66.424l-28.488-6.358c-16.62-3.709-29.6-16.689-33.309-33.309l-6.358-28.488c-6.63-29.707-40.727-43.834-66.424-27.522l-24.667 15.659c-14.372 9.124-32.72 9.124-47.092 0z" fill="url(#SVGID_2_)"/><g><g><path d="m107.672 338.435-16.795-95.247c-.874-4.957 1.577-9.905 6.048-12.215 4.472-2.309 9.925-1.443 13.461 2.139l57.637 58.391-11.182-60.018c-1.163-6.244 2.956-12.249 9.199-13.412 6.242-1.162 12.249 2.955 13.412 9.199 19.587 105.135 16.925 90.749 17.17 92.161 2.38 13.492-12.502 21.091-21.757 11.741l-54.933-55.651 10.388 58.917c1.103 6.255-3.073 12.219-9.328 13.322-6.252 1.105-12.217-3.072-13.32-9.327z" fill="#fff5f6"/></g><path d="m278.93 312.358c-.553-6.327-6.129-11.011-12.459-10.454l-28.845 2.523-2.18-24.911 25.873-2.263c6.327-.553 11.008-6.131 10.454-12.458-.553-6.328-6.123-11.005-12.458-10.454l-25.874 2.263-2.18-24.911 28.846-2.524c6.327-.553 11.007-6.131 10.454-12.458s-6.127-11.004-12.459-10.454l-40.302 3.526c-6.323.553-11.008 6.132-10.454 12.459l8.368 95.648c.55 6.295 6.098 11.009 12.458 10.454l40.302-3.526c6.33-.554 11.01-6.132 10.456-12.46z" fill="#fff5f6"/><g><path d="m367.464 341.565c-6.101-1.034-10.575-6-11.282-11.706l-7.761-62.109c-34.494 67.207-27.55 53.811-28.729 55.968-2.803 5.102-8.545 7.878-14.282 6.906-6.549-1.109-11.241-6.793-11.369-12.893l-2.019-97.271c-.132-6.35 4.909-11.605 11.259-11.736 6.34-.111 11.604 4.909 11.736 11.259l1.246 60.053 28.715-55.951c2.304-4.489 7.262-6.951 12.233-6.074 4.968.878 8.784 4.893 9.41 9.899l7.799 62.414 21.732-55.867c2.302-5.919 8.966-8.852 14.887-6.549 5.919 2.303 8.851 8.968 6.549 14.887l-35.204 90.499c-2.182 5.612-8.409 9.373-14.92 8.271z" fill="#fff5f6"/></g></g><g><path d="m178.051 136.072c0 6.629-6.687 12.003-14.936 12.003s-14.936-5.374-14.936-12.003 6.687-12.003 14.936-12.003 14.936 5.374 14.936 12.003z" fill="#efc5db"/><path d="m353.822 136.072c0 6.629-6.687 12.003-14.936 12.003s-14.936-5.374-14.936-12.003 6.687-12.003 14.936-12.003 14.936 5.374 14.936 12.003z" fill="#efc5db"/><circle cx="188.721" cy="106.455" fill="#fff" r="29.618"/><path d="m218.339 106.455c0 9.749-7.903 17.652-17.653 17.652-9.749 0-17.652-7.903-17.652-17.652s7.903-17.652 17.652-17.652c9.75-.001 17.653 7.903 17.653 17.652z" fill="#3b3b44"/><circle cx="313.279" cy="106.455" fill="#fff" r="29.618"/><g fill="#3b3b44"><path d="m342.835 106.455c0 9.749-7.903 17.652-17.652 17.652s-17.652-7.903-17.652-17.652 7.903-17.652 17.652-17.652c9.748-.001 17.652 7.903 17.652 17.652z"/><ellipse cx="251" cy="128.907" rx="13.252" ry="17.352"/></g></g></g></svg>