<svg height="682.66534pt" viewBox="-21 -21 682.66534 682.66534" width="682.66534pt" xmlns="http://www.w3.org/2000/svg"><path d="m546.273438 93.726562c-60.4375-60.441406-140.800782-93.726562-226.273438-93.726562s-165.835938 33.285156-226.273438 93.726562c-60.441406 60.4375-93.726562 140.800782-93.726562 226.273438s33.285156 165.832031 93.726562 226.273438c60.4375 60.4375 140.800782 93.726562 226.273438 93.726562s165.835938-33.289062 226.273438-93.726562c60.4375-60.441407 93.726562-140.796876 93.726562-226.273438 0-85.472656-33.289062-165.832031-93.726562-226.273438zm-17.882813 434.664063c-55.660156 55.664063-129.671875 86.320313-208.390625 86.320313-78.722656 0-152.730469-30.65625-208.394531-86.320313-55.664063-55.660156-86.316407-129.671875-86.316407-208.390625 0-78.722656 30.652344-152.730469 86.316407-208.394531 55.664062-55.664063 129.671875-86.316407 208.394531-86.316407 78.71875 0 152.730469 30.652344 208.390625 86.316407 55.664063 55.664062 86.320313 129.671875 86.320313 208.394531 0 78.71875-30.65625 152.730469-86.320313 208.390625zm0 0"/><path d="m320 55.972656c-145.585938 0-264.027344 118.441406-264.027344 264.027344 0 50.722656 14.421875 99.988281 41.707032 142.480469 3.769531 5.875 11.59375 7.582031 17.464843 3.808593 5.878907-3.773437 7.585938-11.597656 3.808594-17.472656-24.660156-38.40625-37.695313-82.949218-37.695313-128.816406 0-131.640625 107.101563-238.742188 238.742188-238.742188s238.738281 107.101563 238.738281 238.742188c0 131.644531-107.097656 238.738281-238.738281 238.738281-47.867188 0-94.042969-14.105469-133.53125-40.800781-5.785156-3.910156-13.640625-2.390625-17.554688 3.394531-3.910156 5.785157-2.390624 13.640625 3.394532 17.554688 43.6875 29.53125 94.757812 45.140625 147.691406 45.140625 145.585938 0 264.023438-118.441406 264.023438-264.023438 0-145.585937-118.4375-264.03125-264.023438-264.03125zm0 0"/><path d="m139.753906 482.382812c-5.273437 0-10.097656 3.40625-11.882812 8.363282-1.789063 4.945312-.234375 10.667968 3.832031 14.019531 4.078125 3.359375 9.9375 3.8125 14.484375 1.136719 4.535156-2.671875 6.984375-8.082032 5.984375-13.246094-1.140625-5.878906-6.414063-10.273438-12.417969-10.273438zm0 0"/><path d="m241.179688 278.363281v31.617188c0 13.128906 10.679687 23.808593 23.804687 23.808593h32.257813v67.289063h-31.199219c-13.128907 0-23.808594 10.679687-23.808594 23.804687v31.621094c0 13.125 10.679687 23.808594 23.808594 23.808594h130.789062c13.128907 0 23.808594-10.683594 23.808594-23.808594v-31.621094c0-13.125-10.679687-23.804687-23.808594-23.804687h-20.359375v-122.714844c0-13.128906-10.683594-23.808593-23.808594-23.808593h-87.679687c-13.125 0-23.804687 10.683593-23.804687 23.808593zm25.285156 1.480469h84.722656v122.710938c0 13.128906 10.683594 23.808593 23.808594 23.808593h20.359375v28.660157h-127.832031v-28.660157h31.195312c13.132812 0 23.808594-10.679687 23.808594-23.808593v-70.246094c0-13.125-10.675782-23.804688-23.808594-23.804688h-32.253906zm0 0"/><path d="m312.183594 235.605469c30.878906 0 55.996094-25.121094 55.996094-55.996094 0-30.878906-25.117188-55.996094-55.996094-55.996094-30.875 0-55.992188 25.117188-55.992188 55.996094 0 30.875 25.117188 55.996094 55.992188 55.996094zm0-86.710938c16.9375 0 30.710937 13.78125 30.710937 30.714844s-13.773437 30.707031-30.710937 30.707031c-16.933594 0-30.710938-13.773437-30.710938-30.707031s13.777344-30.714844 30.710938-30.714844zm0 0"/></svg>